<svg height="1006" width="720" xmlns="http://www.w3.org/2000/svg">
<rect height="1006" fill="#555" width="720"></rect>
<text fill="#7f7" font-family="Courier New" font-size="12" xml:space="preserve">
<tspan x="10" y="26">17 megabytes installed</tspan>
<tspan x="10" y="42"></tspan>
<tspan x="10" y="58">node_modules</tspan>
<tspan x="10" y="74">└─┬ babel-tape-runner@2.0.1 </tspan>
<tspan x="10" y="90">  ├─┬ babel-polyfill@6.23.0 </tspan>
<tspan x="10" y="106">  │ ├── babel-runtime@6.23.0 </tspan>
<tspan x="10" y="122">  │ ├── core-js@2.4.1 </tspan>
<tspan x="10" y="138">  │ └── regenerator-runtime@0.10.3 </tspan>
<tspan x="10" y="154">  ├─┬ babel-register@6.24.1 </tspan>
<tspan x="10" y="170">  │ ├─┬ babel-core@6.24.1 </tspan>
<tspan x="10" y="186">  │ │ ├─┬ babel-code-frame@6.22.0 </tspan>
<tspan x="10" y="202">  │ │ │ ├─┬ chalk@1.1.3 </tspan>
<tspan x="10" y="218">  │ │ │ │ ├── ansi-styles@2.2.1 </tspan>
<tspan x="10" y="234">  │ │ │ │ ├── escape-string-regexp@1.0.5 </tspan>
<tspan x="10" y="250">  │ │ │ │ ├─┬ has-ansi@2.0.0 </tspan>
<tspan x="10" y="266">  │ │ │ │ │ └── ansi-regex@2.1.1 </tspan>
<tspan x="10" y="282">  │ │ │ │ ├── strip-ansi@3.0.1 </tspan>
<tspan x="10" y="298">  │ │ │ │ └── supports-color@2.0.0 </tspan>
<tspan x="10" y="314">  │ │ │ ├── esutils@2.0.2 </tspan>
<tspan x="10" y="330">  │ │ │ └── js-tokens@3.0.1 </tspan>
<tspan x="10" y="346">  │ │ ├─┬ babel-generator@6.24.1 </tspan>
<tspan x="10" y="362">  │ │ │ ├─┬ detect-indent@4.0.0 </tspan>
<tspan x="10" y="378">  │ │ │ │ └─┬ repeating@2.0.1 </tspan>
<tspan x="10" y="394">  │ │ │ │   └─┬ is-finite@1.0.2 </tspan>
<tspan x="10" y="410">  │ │ │ │     └── number-is-nan@1.0.1 </tspan>
<tspan x="10" y="426">  │ │ │ ├── jsesc@1.3.0 </tspan>
<tspan x="10" y="442">  │ │ │ └── trim-right@1.0.1 </tspan>
<tspan x="10" y="458">  │ │ ├── babel-helpers@6.24.1 </tspan>
<tspan x="10" y="474">  │ │ ├── babel-messages@6.23.0 </tspan>
<tspan x="10" y="490">  │ │ ├── babel-template@6.24.1 </tspan>
<tspan x="10" y="506">  │ │ ├─┬ babel-traverse@6.24.1 </tspan>
<tspan x="10" y="522">  │ │ │ ├── globals@9.17.0 </tspan>
<tspan x="10" y="538">  │ │ │ └─┬ invariant@2.2.2 </tspan>
<tspan x="10" y="554">  │ │ │   └── loose-envify@1.3.1 </tspan>
<tspan x="10" y="570">  │ │ ├─┬ babel-types@6.24.1 </tspan>
<tspan x="10" y="586">  │ │ │ └── to-fast-properties@1.0.2 </tspan>
<tspan x="10" y="602">  │ │ ├── babylon@6.17.0 </tspan>
<tspan x="10" y="618">  │ │ ├── convert-source-map@1.5.0 </tspan>
<tspan x="10" y="634">  │ │ ├─┬ debug@2.6.4 </tspan>
<tspan x="10" y="650">  │ │ │ └── ms@0.7.3 </tspan>
<tspan x="10" y="666">  │ │ ├── json5@0.5.1 </tspan>
<tspan x="10" y="682">  │ │ ├── private@0.1.7 </tspan>
<tspan x="10" y="698">  │ │ ├── slash@1.0.0 </tspan>
<tspan x="10" y="714">  │ │ └── source-map@0.5.6 </tspan>
<tspan x="10" y="730">  │ ├─┬ home-or-tmp@2.0.0 </tspan>
<tspan x="10" y="746">  │ │ ├── os-homedir@1.0.2 </tspan>
<tspan x="10" y="762">  │ │ └── os-tmpdir@1.0.2 </tspan>
<tspan x="10" y="778">  │ ├── lodash@4.17.4 </tspan>
<tspan x="10" y="794">  │ ├─┬ mkdirp@0.5.1 </tspan>
<tspan x="10" y="810">  │ │ └── minimist@0.0.8 </tspan>
<tspan x="10" y="826">  │ └── source-map-support@0.4.14 </tspan>
<tspan x="10" y="842">  └─┬ glob@6.0.4 </tspan>
<tspan x="10" y="858">    ├─┬ inflight@1.0.6 </tspan>
<tspan x="10" y="874">    │ └── wrappy@1.0.2 </tspan>
<tspan x="10" y="890">    ├── inherits@2.0.3 </tspan>
<tspan x="10" y="906">    ├─┬ minimatch@3.0.3 </tspan>
<tspan x="10" y="922">    │ └─┬ brace-expansion@1.1.7 </tspan>
<tspan x="10" y="938">    │   ├── balanced-match@0.4.2 </tspan>
<tspan x="10" y="954">    │   └── concat-map@0.0.1 </tspan>
<tspan x="10" y="970">    ├── once@1.4.0 </tspan>
<tspan x="10" y="986">    └── path-is-absolute@1.0.1</tspan>
</text>
</svg>
